<?xml version="1.0" standalone="no"?>
<!DOCTYPE svg PUBLIC "-//W3C//DTD SVG 20010904//EN"
 "http://www.w3.org/TR/2001/REC-SVG-20010904/DTD/svg10.dtd">
<svg version="1.0" xmlns="http://www.w3.org/2000/svg"
 width="874.000000pt" height="874.000000pt" viewBox="0 0 874.000000 874.000000"
 preserveAspectRatio="xMidYMid meet">
<metadata>
Created by potrace 1.14, written by Peter Selinger 2001-2017
</metadata>
<g transform="translate(0.000000,874.000000) scale(0.100000,-0.100000)"
fill="#000000" stroke="none">
<path d="M410 8722 c-15 -12 -24 -33 -27 -67 -3 -28 -11 -56 -17 -64 -8 -10
-12 -1136 -14 -4220 -2 -3991 -1 -4208 15 -4241 10 -20 33 -43 53 -53 33 -16
238 -17 3952 -15 l3917 3 28 21 c15 11 34 32 40 45 10 19 13 911 13 4226 0
2501 -4 4204 -9 4207 -5 4 -12 28 -16 56 -4 27 -17 64 -29 82 l-22 33 -3931 3
c-3765 2 -3932 1 -3953 -16z m5969 -1161 c16 -16 20 -41 26 -202 3 -101 5
-294 3 -429 l-3 -244 -65 -24 c-61 -22 -85 -32 -207 -81 -225 -91 -247 -96
-258 -61 -3 11 -5 104 -4 207 2 147 -1 200 -14 245 -21 77 -32 95 -70 115 -30
17 -114 18 -1347 21 -723 2 -1367 0 -1430 -3 -112 -7 -115 -8 -147 -40 -20
-20 -33 -43 -33 -58 0 -13 -7 -41 -15 -60 -12 -29 -15 -85 -15 -274 0 -139 5
-254 11 -277 21 -75 68 -111 244 -182 88 -36 221 -87 295 -114 160 -58 387
-146 675 -262 116 -47 228 -91 250 -98 22 -7 81 -31 130 -53 50 -22 124 -51
165 -63 41 -12 109 -36 150 -54 41 -18 120 -49 175 -70 101 -39 256 -100 465
-184 184 -74 383 -151 555 -215 234 -87 438 -170 457 -188 10 -9 20 -30 23
-47 3 -17 7 -320 8 -673 l2 -642 -37 -21 c-20 -11 -63 -30 -94 -40 -31 -11
-62 -24 -68 -29 -6 -5 -37 -16 -69 -25 -32 -9 -104 -36 -160 -60 -56 -24 -113
-47 -127 -51 -23 -7 -78 -29 -210 -85 -25 -11 -98 -40 -163 -65 -66 -25 -126
-50 -135 -55 -21 -12 -250 -98 -402 -151 -63 -22 -142 -53 -175 -69 -33 -16
-78 -34 -100 -41 -22 -6 -76 -27 -120 -46 -44 -19 -109 -45 -145 -58 -36 -13
-103 -40 -150 -60 -47 -21 -121 -50 -165 -65 -85 -30 -171 -66 -220 -92 -16
-8 -48 -19 -69 -22 -22 -4 -83 -26 -135 -48 -53 -22 -125 -51 -161 -65 -36
-13 -114 -43 -175 -67 -60 -24 -137 -54 -170 -67 -33 -12 -98 -40 -145 -62
-65 -29 -105 -41 -170 -48 -99 -10 -419 -12 -510 -2 l-63 6 5 424 c6 498 -4
458 129 511 194 78 342 132 359 132 37 0 42 -22 40 -205 -1 -193 7 -239 46
-276 22 -20 35 -24 87 -24 51 1 86 10 202 57 77 31 158 62 180 68 22 7 96 36
165 65 69 29 186 76 260 105 74 28 194 76 265 105 72 29 191 77 265 105 178
68 401 153 525 200 55 20 136 53 180 73 44 19 91 38 105 42 14 4 77 29 140 56
63 26 194 78 290 114 255 96 258 97 296 128 68 56 69 64 67 332 -4 418 -14
437 -284 531 -37 12 -84 31 -105 42 -22 11 -55 24 -74 30 -19 6 -78 27 -130
47 -52 21 -120 46 -150 56 -30 11 -63 24 -74 30 -10 6 -41 18 -69 26 -28 8
-105 39 -171 68 -67 29 -132 56 -146 60 -14 4 -77 28 -140 55 -63 26 -133 53
-155 60 -22 7 -60 23 -85 35 -25 13 -88 37 -140 54 -52 17 -126 44 -165 60
-102 43 -202 81 -212 81 -4 0 -65 25 -135 55 -70 30 -130 55 -135 55 -4 0 -57
21 -118 46 -60 25 -141 57 -179 70 -38 13 -74 27 -80 32 -21 16 -179 74 -240
89 -33 8 -70 20 -81 27 -28 18 -141 65 -195 80 -25 7 -70 25 -100 40 -30 14
-94 41 -143 59 l-87 33 -3 771 c-2 746 -1 771 17 792 l19 21 2024 0 c1969 0
2024 -1 2042 -19z m-1334 -6378 l1639 -6 23 -23 c22 -22 23 -31 23 -149 l0
-125 -26 -10 c-16 -6 -875 -10 -2383 -10 -2324 0 -2358 0 -2376 19 -15 17 -17
36 -14 139 4 124 11 145 54 162 25 11 977 12 3060 3z m1712 -195 c-3 -7 -5 -2
-5 12 0 14 2 19 5 13 2 -7 2 -19 0 -25z"/>
</g>
</svg>
