<svg xmlns="http://www.w3.org/2000/svg" title="shreyash" width="501" height="67" viewBox="0 0 501 67" fill="#037EFE">
<path d="M16.9419 0.589198C15.4837 0.686411 13.9283 0.96185 13.5718 1.18868C13.3774 1.3183 12.9075 1.49652 12.5187 1.60994C12.146 1.70715 11.3359 2.0312 10.7364 2.33904C10.1369 2.64689 9.55367 2.90612 9.42405 2.90612C9.19722 2.90612 7.69041 3.97547 6.99371 4.63977C6.79928 4.83419 6.50764 5.04482 6.34562 5.09343C6.08638 5.19064 4.30413 7.24833 3.3644 8.57692C2.19784 10.1809 1.84139 10.8938 0.885455 13.2756C0.772039 13.5834 0.512803 14.6042 0.318375 15.5439C-0.15149 17.8608 -0.0704791 22.4785 0.4966 24.6172C0.691027 25.3787 0.901657 26.0592 0.966466 26.1564C1.03128 26.2374 1.25811 26.7883 1.46874 27.3715C1.67937 27.9548 1.97101 28.5705 2.11683 28.7487C2.27885 28.927 2.45707 29.251 2.52188 29.4616C2.58669 29.6723 2.87833 30.1097 3.15377 30.4338C3.44541 30.7578 3.83427 31.2763 4.02869 31.5841C4.72539 32.7507 8.09546 35.6671 9.61848 36.461C9.73189 36.5096 10.0397 36.6879 10.299 36.8337C11.1253 37.3035 12.0488 37.6762 12.6321 37.7896C12.9399 37.8544 13.588 38.1137 14.0903 38.3567L14.9976 38.7941L22.5317 38.8914L30.0657 38.9724L31.1513 39.4908C31.7508 39.7825 32.3503 40.0093 32.4637 40.0093C32.8525 40.0093 34.975 42.1966 35.2991 42.9419C35.6069 43.6224 36.012 44.8538 36.1902 45.6477C36.2388 45.8583 36.0444 46.7333 35.7689 47.6244C35.3315 48.9854 35.137 49.3418 34.4079 50.1357C33.9381 50.6542 33.5492 51.1241 33.5492 51.2051C33.5492 51.2861 33.1604 51.5453 32.7067 51.7722C32.2368 52.0152 31.7994 52.2744 31.7508 52.3554C31.4267 52.8415 29.3528 52.9225 16.8285 52.9387C8.17647 52.9549 4.02869 53.0197 3.54263 53.1332C2.24645 53.4734 2.21404 53.603 2.06822 58.3179C1.9224 63.1948 2.00341 64.653 2.45707 65.058C2.99175 65.5441 5.5031 65.6251 18.6431 65.6089C32.3989 65.5927 34.7644 65.4955 35.4287 64.977C35.6717 64.7826 35.9958 64.6368 36.1578 64.6368C36.3198 64.6368 36.498 64.572 36.5466 64.4747C36.5953 64.3937 36.8869 64.3127 37.1623 64.3127C37.454 64.3127 37.859 64.1993 38.0859 64.0697C38.3127 63.9401 38.9284 63.616 39.4631 63.3568C39.9977 63.0976 40.581 62.7411 40.7754 62.5629C40.9537 62.3847 41.3425 62.1254 41.618 61.9796C42.2498 61.6555 44.8908 59.0308 45.5551 58.0586C45.8143 57.6698 46.106 57.3457 46.1708 57.3457C46.2518 57.3457 46.3976 57.1189 46.511 56.8597C46.6245 56.5842 46.9161 56.082 47.1429 55.7579C47.386 55.4339 47.6776 54.8344 47.8072 54.4293C47.9206 54.0243 48.1475 53.5544 48.3095 53.3762C48.6011 53.0521 48.747 52.5823 49.2006 50.5408C49.6867 48.3535 49.7839 47.2031 49.6867 45.1292C49.5733 42.5369 48.9738 39.6853 48.2933 38.4701C48.1313 38.2109 47.872 37.6114 47.71 37.1739C47.548 36.7203 47.3212 36.2828 47.2239 36.2018C47.1105 36.1046 46.8513 35.7157 46.6569 35.3107C46.4462 34.9056 46.2356 34.5492 46.187 34.5005C46.1384 34.4519 45.8467 34.0955 45.5389 33.6904C44.7612 32.6859 44.3561 32.216 44.1131 32.0054C43.9835 31.9082 43.465 31.4221 42.9465 30.9198C42.4281 30.4176 41.6018 29.8343 41.1319 29.6075C40.6458 29.3644 40.1435 29.0728 40.0139 28.9594C39.5279 28.4733 36.8545 27.3878 35.8986 27.2743C35.3639 27.2095 34.5214 26.9665 34.0353 26.7397L33.1442 26.3184L25.918 26.2374L18.6917 26.1564L17.8492 25.6217C17.3794 25.3463 16.9257 25.1032 16.8285 25.1032C16.7313 25.1032 16.0994 24.5199 15.4027 23.7908C14.1551 22.4947 14.1389 22.4623 13.7987 21.0527C13.3774 19.2866 13.3774 19.319 13.8311 17.8284C14.1389 16.7591 14.3171 16.4836 15.1597 15.6249C16.1966 14.5718 17.4604 13.6644 18.2381 13.3728C18.5621 13.2594 23.2122 13.1784 32.6419 13.1136L46.5434 13.0325L46.9971 12.4817C47.4184 11.9956 47.467 11.8012 47.5642 10.1323C47.6128 9.144 47.5966 6.69745 47.5318 4.68837L47.4022 1.04286L46.5921 0.767423C45.8629 0.524389 44.4534 0.508187 31.767 0.524389C24.0547 0.524389 17.3956 0.556793 16.9419 0.589198Z"/>
<path d="M63.9123 0.653959C62.5837 0.961802 62.7133 -2.37587 62.7133 32.8479C62.7133 50.1357 62.7619 64.4261 62.8267 64.5881C63.0373 65.1552 63.3776 65.3172 64.6252 65.4792C66.2292 65.6899 73.2448 65.6737 74.5572 65.463C75.1242 65.3658 75.6913 65.1714 75.8209 65.0418C76.0478 64.8149 76.0964 63.859 76.1612 57.9452L76.2422 51.1078L76.631 50.5731C76.9389 50.1843 77.1495 50.0547 77.5384 50.0547C78.0568 50.0547 78.948 49.6982 79.4178 49.3094C79.5475 49.1798 80.0335 49.0339 80.471 48.9853C80.9084 48.9205 81.3459 48.8233 81.4269 48.7585C81.5241 48.6937 81.8806 48.5803 82.237 48.5317C82.5935 48.4669 83.0471 48.3048 83.2416 48.1752C83.436 48.0618 83.9059 47.916 84.2947 47.8512C85.04 47.754 86.2876 47.2517 86.4334 46.9924C86.4982 46.9114 86.8871 46.7818 87.3083 46.717C87.7296 46.636 88.1022 46.5712 88.1509 46.5712C88.9934 46.3444 89.285 46.2471 89.6901 46.0041C89.9655 45.8421 90.5002 45.6639 90.889 45.5991C91.7316 45.4532 92.6875 45.0806 92.9305 44.7889C93.0115 44.6755 93.4652 44.5135 93.9027 44.4163C95.4581 44.0922 96.171 43.8816 96.2682 43.7196C96.3654 43.5576 96.9487 43.3793 98.2125 43.1039C98.5365 43.0391 99.055 42.8123 99.3628 42.634C99.6869 42.4396 100.092 42.2776 100.286 42.2776C100.756 42.2776 102.733 41.6457 103.138 41.3703C103.316 41.2406 103.592 41.1434 103.754 41.1434C104.175 41.1434 106.119 40.4953 106.233 40.3171C106.378 40.0579 106.929 40.1551 107.091 40.4791C107.205 40.6736 107.253 45.0806 107.237 52.7929C107.205 63.4864 107.237 64.8311 107.464 65.058C107.82 65.4144 109.554 65.5927 113.54 65.6575C117.104 65.7223 119.535 65.5278 120.199 65.1066C120.555 64.8798 120.555 64.8311 120.555 60.9912C120.588 15.6897 120.539 1.20484 120.393 1.05902C119.907 0.572948 118.789 0.475734 113.815 0.475734C109.7 0.475734 108.647 0.524341 108.047 0.718768L107.318 0.978004L107.221 2.14457C107.172 2.79266 107.156 8.15561 107.189 14.0856C107.221 20.2749 107.172 25.1032 107.091 25.4272C106.881 26.2211 105.439 27.1285 104.159 27.2905C103.64 27.3391 102.863 27.5983 102.376 27.8414C101.907 28.1006 101.21 28.3436 100.837 28.4084C100.481 28.4571 99.7193 28.7163 99.1846 28.9755C98.6337 29.2348 97.7912 29.494 97.2889 29.5588C96.7867 29.6236 96.1548 29.8018 95.8793 29.9639C95.5877 30.1421 94.8586 30.3851 94.2591 30.5309C93.6434 30.6768 92.8819 30.9684 92.5579 31.179C92.2014 31.4059 91.5047 31.6489 90.8242 31.7461C90.2085 31.8433 89.447 32.054 89.123 32.2322C88.4101 32.6048 87.5676 32.8803 87.0977 32.8803C86.9033 32.8803 86.4496 33.0747 86.1094 33.3177C85.7367 33.5608 85.0076 33.8362 84.3433 33.9496C83.7276 34.0792 82.8851 34.3547 82.4801 34.5653C82.075 34.7759 81.4269 34.9866 81.0219 35.0514C80.6168 35.1162 79.8715 35.3754 79.3692 35.6347C78.3161 36.1855 76.7931 36.4448 76.4042 36.1207C76.1936 35.9425 76.1612 33.8848 76.1612 18.6709C76.1612 7.60473 76.0964 1.31825 75.9992 1.12382C75.9019 0.9456 75.5131 0.751173 75.027 0.653959C74.0225 0.44333 64.8682 0.44333 63.9123 0.653959Z"/>
<path d="M135.445 0.73499C134.911 0.897012 134.668 1.05904 134.587 1.31827C134.538 1.5289 134.489 15.8517 134.489 33.1557C134.489 63.0489 134.506 64.6205 134.781 64.9608C135.202 65.4793 137.665 65.7709 141.699 65.7709C145.118 65.7709 147.079 65.5117 147.646 65.0094C147.921 64.7664 147.937 64.1345 147.937 55.9847C147.937 50.7838 148.002 47.1221 148.099 46.9763C148.31 46.636 151.777 46.5226 152.166 46.8466C152.312 46.9601 152.62 47.5595 152.83 48.1914C153.057 48.8071 153.43 49.7307 153.657 50.2167C153.883 50.7028 154.224 51.5453 154.418 52.08C154.823 53.1979 155.18 53.846 156.071 55.0126C156.411 55.4663 156.686 55.9037 156.686 55.9847C156.686 56.0657 156.897 56.3736 157.14 56.6652C157.383 56.9569 157.902 57.5888 158.307 58.0748C158.712 58.5771 159.635 59.5006 160.364 60.1487C162.244 61.8175 162.519 62.0444 162.714 62.0444C162.811 62.0444 163.167 62.3036 163.524 62.6277C163.88 62.9355 164.464 63.3406 164.836 63.5188C165.209 63.697 165.695 63.94 165.922 64.0697C166.149 64.1993 166.456 64.3127 166.618 64.3127C166.975 64.3127 167.736 64.7015 168.012 65.0094C168.109 65.139 168.466 65.301 168.806 65.3658C169.535 65.4955 170.264 65.7061 171.431 66.1598C172.273 66.4838 172.613 66.5 178.349 66.5C183.922 66.5 184.409 66.4838 184.668 66.2084C184.943 65.9491 184.959 65.4793 184.959 60.4241V54.9316L184.587 54.5589C184.23 54.2025 184.101 54.1863 180.212 54.0729C175.87 53.9594 175.27 53.8946 174.687 53.441C174.477 53.2627 174.234 53.1331 174.153 53.1331C173.974 53.1331 173.035 52.7443 172.386 52.3878C172.143 52.2582 171.641 51.999 171.269 51.8045C170.394 51.3347 168.449 49.2608 167.931 48.2562C167.72 47.835 167.477 47.4461 167.38 47.3813C167.299 47.3327 167.218 47.1545 167.218 47.0087C167.218 46.7656 167.493 46.6846 168.871 46.5226C169.81 46.4092 170.766 46.1986 171.107 46.0203C171.431 45.8583 172.014 45.6639 172.403 45.5991C172.808 45.5343 173.213 45.4208 173.294 45.356C173.391 45.2912 173.699 45.1778 173.991 45.113C174.282 45.0482 174.574 44.9024 174.622 44.7728C174.671 44.6431 174.817 44.5459 174.946 44.5459C175.53 44.5459 177.668 43.3146 178.3 42.6179C178.479 42.4234 178.689 42.2776 178.786 42.2776C178.884 42.2776 179.402 41.8888 179.937 41.4189C180.488 40.9652 181.217 40.3333 181.589 40.0417C182.367 39.4422 184.49 36.8336 184.943 35.9263C185.105 35.6023 185.381 35.181 185.543 35.0028C186.11 34.3871 187.147 31.4869 187.455 29.6398C187.519 29.2348 187.714 28.4733 187.876 27.9386C188.346 26.3832 188.33 21.5549 187.827 19.1894C187.617 18.201 187.374 17.1803 187.293 16.9049C187.212 16.6294 187.147 16.2244 187.147 16.0137C187.147 15.7869 187.033 15.4629 186.904 15.2846C186.774 15.1226 186.661 14.8796 186.661 14.75C186.661 14.4745 185.851 12.7409 185.689 12.6275C185.624 12.5788 185.3 12.0604 184.976 11.4771C184.652 10.8938 184.247 10.2781 184.068 10.1161C183.89 9.95408 183.744 9.75965 183.744 9.67864C183.744 9.59763 183.485 9.32219 183.177 9.04675C182.869 8.77132 182.61 8.44727 182.61 8.33385C182.61 8.22044 182.318 7.88019 181.962 7.58855C181.606 7.28071 180.893 6.64882 180.39 6.17895C179.888 5.70909 179.256 5.20682 178.981 5.061C178.705 4.91518 178.3 4.60733 178.057 4.3643C177.814 4.13747 176.972 3.61899 176.178 3.24634C175.4 2.85749 174.493 2.42003 174.185 2.258C173.877 2.11218 173.067 1.85295 172.403 1.69092C171.738 1.5451 171.009 1.30207 170.782 1.15625C169.859 0.589169 167.202 0.491956 151.421 0.491956C138.702 0.491956 136.061 0.540562 135.445 0.73499ZM165.889 13.3404C166.537 13.47 167.202 13.6806 167.348 13.8102C167.493 13.956 167.996 14.1991 168.433 14.3773C169.648 14.8472 170.394 15.3656 171.414 16.3702C172.646 17.6016 172.954 17.9904 173.699 19.2704C174.412 20.4856 174.849 22.0896 174.865 23.483C174.865 24.4875 174.412 26.6748 174.12 27.0475C174.007 27.1771 173.715 27.647 173.456 28.1006C172.921 29.0242 172.662 29.3482 171.431 30.5634C170.62 31.3573 168.385 32.8803 168.028 32.8803C167.947 32.8803 167.51 33.1233 167.04 33.3988L166.197 33.9334L157.837 33.982C148.974 34.0469 148.375 33.9982 148.099 33.3178C148.034 33.1233 147.953 29.1214 147.953 24.4227C147.937 19.724 147.889 15.7869 147.856 15.6735C147.808 15.5601 147.824 15.0416 147.889 14.5069C148.018 13.6158 148.051 13.551 148.585 13.3566C149.444 13.0487 164.269 13.0325 165.889 13.3404Z"/>
<path d="M200.449 0.637751C199.007 0.84838 199.072 0.637751 199.023 5.9521C198.991 10.829 199.12 12.19 199.687 12.7733C199.93 13.0163 201.891 13.0325 223.051 13.0811C235.754 13.0973 246.366 13.0649 246.658 12.9839C246.966 12.9029 247.322 12.6436 247.549 12.3034C247.905 11.7849 247.905 11.7039 247.905 6.56778C247.905 3.69998 247.84 1.28584 247.776 1.17243C247.711 1.05901 247.338 0.864583 246.949 0.718762C246.334 0.508133 243.563 0.475728 223.78 0.49193C211.434 0.508133 200.935 0.572942 200.449 0.637751Z"/>
<path d="M254.629 0.67019C254.37 0.767403 254.046 0.913224 253.949 1.01044C253.706 1.18866 253.657 2.9061 253.884 2.9061C253.965 2.9061 254.111 3.13293 254.24 3.40837C254.354 3.70001 254.597 4.10507 254.791 4.3481C255.002 4.57494 255.326 5.17442 255.52 5.66049C255.731 6.14656 255.99 6.66503 256.104 6.79465C256.201 6.92427 256.444 7.37793 256.638 7.79919C256.817 8.22045 257.06 8.6093 257.141 8.65791C257.238 8.72272 257.529 9.20879 257.789 9.75966C258.291 10.8128 258.566 11.2827 259.603 12.8543C259.944 13.3728 260.219 13.8912 260.219 13.9885C260.219 14.1019 260.478 14.5555 260.786 14.993C261.094 15.4305 261.353 15.8679 261.353 15.9651C261.353 16.0623 261.45 16.2406 261.58 16.3378C261.71 16.4512 262.082 17.0831 262.422 17.7798C262.747 18.4603 263.249 19.3514 263.524 19.7565C263.8 20.1615 264.156 20.7772 264.318 21.1337C264.61 21.7655 265.306 22.8997 266.23 24.2445C266.489 24.6171 266.7 24.9898 266.7 25.087C266.7 25.3462 267.623 27.1609 268.239 28.1006C268.531 28.5381 268.903 29.1862 269.082 29.5102C269.568 30.4824 270.459 31.973 270.75 32.3132C270.912 32.4914 271.318 33.2043 271.642 33.901C271.966 34.5977 272.371 35.3106 272.517 35.4565C272.679 35.6185 273.067 36.218 273.375 36.785C274.639 39.1506 275.012 39.7825 275.206 40.0093C275.319 40.1389 275.611 40.6574 275.854 41.1435C276.567 42.6179 277.345 44.0599 277.588 44.3353C277.75 44.5459 277.815 46.6036 277.879 54.8182L277.96 65.0418L278.414 65.2524C278.738 65.4145 280.229 65.5117 283.518 65.6251C287.455 65.7385 288.346 65.7223 289.383 65.5117C290.08 65.3821 290.679 65.1552 290.809 65.0094C290.955 64.7988 291.003 63.1785 291.019 58.2531C291.036 45.6153 291.068 44.789 291.327 44.4649C291.57 44.1733 291.862 43.6548 292.688 42.0022C292.948 41.4837 293.336 40.868 293.531 40.6088C293.741 40.3658 294.244 39.4908 294.649 38.6807C295.054 37.8544 295.459 37.1091 295.54 37.0119C295.67 36.8499 296.075 36.1208 297.338 33.6904C297.695 33.0261 298.084 32.3618 298.213 32.2322C298.343 32.0864 298.456 31.8434 298.456 31.7137C298.456 31.5679 298.57 31.3735 298.716 31.2439C298.845 31.1305 299.153 30.6606 299.38 30.2231C299.607 29.7695 300.028 29.0728 300.303 28.6677C300.595 28.2627 300.951 27.6794 301.097 27.3715C301.259 27.0637 301.664 26.3346 302.021 25.7513C302.718 24.5847 303.268 23.5802 303.9 22.3002C304.143 21.8466 304.451 21.2795 304.613 21.0526C304.759 20.8258 305.277 19.9185 305.747 19.0274C306.217 18.1362 306.817 17.1155 307.076 16.7752C307.319 16.4188 307.53 16.0623 307.53 15.9975C307.53 15.9165 307.789 15.4953 308.097 15.0416C308.405 14.5879 308.664 14.1181 308.664 13.9885C308.664 13.875 308.874 13.5348 309.134 13.2432C309.377 12.9515 310.009 11.8984 310.527 10.8938C311.045 9.88928 311.58 8.94955 311.726 8.78753C312.05 8.43108 313.2 6.21137 313.2 5.93593C313.2 5.82251 313.46 5.38505 313.767 4.94759C314.075 4.51013 314.335 4.07267 314.335 3.99165C314.335 3.91064 314.48 3.66761 314.659 3.44078C314.902 3.11673 314.983 2.77648 314.983 1.99878V0.994235L314.205 0.734999C313.541 0.508167 312.552 0.475762 307.756 0.491965C301.308 0.508167 300.838 0.572976 300.352 1.4479C300.19 1.75574 299.915 2.1608 299.769 2.33902C299.607 2.51725 299.185 3.16534 298.829 3.79723C298.473 4.41291 297.695 5.7577 297.095 6.76224C296.512 7.76678 296.026 8.65791 296.026 8.72272C296.026 8.78753 295.815 9.14398 295.572 9.48422C295.086 10.1485 293.596 12.9191 293.596 13.1459C293.596 13.2107 293.385 13.5834 293.11 13.9561C292.85 14.3125 292.624 14.7014 292.624 14.7986C292.624 14.8958 292.429 15.2684 292.186 15.6249C291.943 15.9813 291.587 16.6132 291.392 17.0183C291.198 17.4233 290.776 18.1038 290.452 18.5251C290.128 18.9463 289.869 19.3514 289.869 19.4324C289.869 19.5944 288.508 22.0734 287.86 23.0779C287.568 23.5154 287.131 24.2931 286.904 24.7792C286.207 26.2374 284.879 28.2789 284.522 28.4247C284.263 28.5381 284.02 28.2627 283.469 27.3553C283.291 27.0475 282.918 26.3994 282.627 25.9133C282.335 25.4273 281.898 24.6171 281.655 24.1311C281.428 23.645 281.055 23.0131 280.844 22.7377C280.634 22.4622 280.472 22.1706 280.472 22.0734C280.472 21.9762 280.326 21.7331 280.164 21.5063C279.986 21.2957 279.548 20.5342 279.176 19.8213C278.803 19.1246 278.43 18.5089 278.349 18.4441C278.139 18.3145 276.907 15.8841 276.891 15.5763C276.891 15.4305 276.535 14.75 276.081 14.0857C275.644 13.4214 275.125 12.5465 274.914 12.1414C274.25 10.8614 273.796 10.1323 273.327 9.51663C273.067 9.19258 272.662 8.54449 272.452 8.05842C272.225 7.58856 271.755 6.72984 271.399 6.14656C271.042 5.56327 270.572 4.76936 270.362 4.36431C269.924 3.50559 269.033 2.06358 268.531 1.35068C268.288 1.01044 267.947 0.783605 267.478 0.67019C266.538 0.427155 255.293 0.427155 254.629 0.67019Z"/>
<path d="M332.497 0.767378C332.189 0.913198 331.801 1.30205 331.622 1.6099C330.861 2.95468 330.294 4.23466 329.694 5.87109C329.354 6.84323 328.9 8.00979 328.69 8.47966C328.479 8.93332 328.09 9.77584 327.831 10.3591C327.556 10.9424 327.28 11.5905 327.215 11.8173C327.151 12.0442 327.005 12.3358 326.875 12.4654C326.762 12.6112 326.551 13.0163 326.421 13.3727C326.308 13.7292 325.935 14.5879 325.611 15.2684C325.287 15.9651 325.028 16.5808 325.028 16.6294C325.028 16.6942 324.785 17.2613 324.477 17.8932C324.169 18.5089 323.651 19.643 323.327 20.4045C323.003 21.166 322.419 22.4298 322.014 23.2399C321.626 24.0338 321.123 25.2814 320.913 25.9943C320.702 26.7072 320.184 27.9386 319.762 28.7487C319.341 29.5426 318.823 30.7092 318.596 31.3411C318.256 32.2808 317.17 34.7273 316.587 35.8453C316.506 35.9911 316.311 36.4772 316.182 36.8984C316.036 37.3197 315.793 37.8382 315.631 38.065C315.355 38.4539 314.011 41.4999 314.011 41.7267C314.011 41.7915 313.67 42.5692 313.265 43.4766C312.05 46.1013 311.937 46.393 311.823 46.8142C311.758 47.0411 311.483 47.6891 311.224 48.2724C310.948 48.8557 310.64 49.5362 310.527 49.8116C310.414 50.0709 310.138 50.7028 309.911 51.1888C309.685 51.6749 309.425 52.3878 309.328 52.7443C309.231 53.1169 309.004 53.603 308.81 53.8298C308.486 54.2673 307.044 57.4105 307.044 57.7183C307.044 57.8156 306.752 58.4799 306.412 59.1928C305.051 62.0119 304.808 62.6924 304.743 63.7456C304.694 64.896 304.856 65.2524 305.472 65.3496C309.117 65.9005 317.413 65.8033 318.369 65.22C318.628 65.058 319.471 63.4702 319.746 62.6114C319.892 62.1578 320.281 61.2504 320.605 60.5861C320.913 59.9219 321.237 59.2252 321.318 59.0469C321.383 58.8687 321.593 58.3988 321.755 57.9938C321.933 57.5887 322.128 57.0865 322.193 56.8596C322.257 56.6328 322.517 56.0819 322.776 55.6283C323.035 55.1746 323.246 54.6885 323.246 54.5589C323.246 54.4293 323.505 53.8298 323.813 53.1979C324.121 52.5822 324.38 51.9503 324.38 51.8045C324.38 51.6425 324.607 51.1564 324.866 50.7352C325.141 50.2977 325.352 49.8927 325.352 49.8278C325.352 49.763 325.611 49.1798 325.919 48.5479C326.227 47.916 326.486 47.3003 326.486 47.1869C326.486 47.0735 326.843 46.2633 327.28 45.3884C328.09 43.752 328.917 41.7915 328.917 41.4675C328.917 41.3703 329.143 40.9652 329.403 40.5763C329.678 40.1875 329.889 39.831 329.889 39.7662C329.889 39.6852 330.99 36.8174 331.493 35.5536C331.752 34.938 332.335 33.6094 332.497 33.3177C332.578 33.1719 332.87 32.4752 333.145 31.7785C333.421 31.098 333.761 30.3527 333.907 30.1259C334.296 29.5426 335.495 26.7072 335.641 26.0591C335.705 25.7675 335.916 25.2652 336.127 24.9412C336.467 24.3903 337.844 21.4577 338.055 20.8258C338.2 20.3883 339.156 18.9463 339.286 18.9463C339.545 18.9463 340.323 20.1777 340.841 21.3605C341.392 22.6566 342.591 25.0222 342.834 25.33C342.915 25.4272 343.094 25.9619 343.239 26.5128C343.369 27.0637 343.855 28.2626 344.325 29.1862C344.779 30.1097 345.329 31.3249 345.54 31.8919C345.751 32.4752 345.994 33.0099 346.075 33.1071C346.14 33.2043 346.399 33.7876 346.642 34.4195C346.885 35.0352 347.144 35.6185 347.209 35.7157C347.274 35.7967 347.42 36.2017 347.533 36.6068C347.776 37.4655 348.538 39.2964 349.105 40.3495C349.315 40.7708 349.672 41.5809 349.882 42.1318C350.385 43.4441 350.547 43.7844 351.454 45.5991C351.875 46.4092 352.264 47.3327 352.329 47.6243C352.394 47.9322 352.54 48.3048 352.653 48.4344C352.766 48.5641 353.058 49.1473 353.301 49.7144C353.528 50.2815 353.819 50.8972 353.949 51.0916C354.063 51.286 354.289 51.8369 354.435 52.323C354.597 52.8091 354.824 53.3275 354.937 53.4734C355.067 53.603 355.164 53.8298 355.164 53.9594C355.164 54.089 355.391 54.6561 355.667 55.2394C355.942 55.8227 356.379 56.8434 356.622 57.5077C357.319 59.3548 358.097 61.1208 358.324 61.3963C358.437 61.5259 358.664 62.0282 358.826 62.498C359.231 63.7618 360.009 65.1228 360.414 65.2686C360.981 65.4954 363.978 65.7709 365.825 65.7709C368.823 65.7709 373.181 65.4306 373.619 65.1714C373.975 64.9446 373.991 64.8473 373.926 63.8104C373.862 63.0651 373.7 62.4008 373.392 61.7689C373.149 61.2504 372.89 60.6834 372.825 60.5051C372.76 60.3269 372.436 59.6302 372.128 58.9659C371.804 58.3016 371.496 57.5725 371.448 57.3619C371.334 56.9892 370.492 55.2232 369.665 53.6192C369.455 53.2141 369.228 52.6146 369.179 52.2906C369.114 51.9665 368.969 51.6101 368.855 51.5129C368.726 51.4157 368.547 51.0592 368.434 50.7352C368.337 50.4111 367.948 49.4066 367.559 48.5155C367.186 47.6243 366.619 46.312 366.328 45.5991C366.036 44.8862 365.599 43.9302 365.355 43.4928C365.112 43.0391 364.788 42.2614 364.643 41.7591C364.481 41.2406 364.254 40.7384 364.14 40.6412C364.011 40.5439 363.913 40.3333 363.913 40.1875C363.913 40.0417 363.573 39.2802 363.184 38.4863C362.779 37.6761 362.455 36.947 362.455 36.8336C362.455 36.7202 362.277 36.2827 362.05 35.8615C361.823 35.4402 361.645 35.019 361.645 34.9056C361.645 34.8083 361.435 34.4033 361.192 33.9982C360.948 33.6094 360.462 32.5562 360.122 31.6813C359.798 30.7902 359.247 29.5588 358.907 28.9107C358.567 28.2788 358.081 27.1447 357.838 26.3832C357.595 25.6379 357.076 24.3579 356.703 23.564C355.796 21.6521 355.051 19.9347 354.905 19.4486C354.856 19.2218 354.581 18.7033 354.338 18.282C354.079 17.8608 353.706 17.0669 353.528 16.4998C353.35 15.9327 352.896 14.8796 352.54 14.1667C352.183 13.4538 351.503 11.9955 351.033 10.9262C350.563 9.85685 350.028 8.64168 349.834 8.22042C349.655 7.79916 349.493 7.39411 349.493 7.31309C349.493 6.94044 348.473 4.57491 347.371 2.42001C346.723 1.12383 346.512 0.864591 346.059 0.702569C345.686 0.556748 343.725 0.491939 339.286 0.491939C333.729 0.491939 332.983 0.524344 332.497 0.767378Z"/>
<path d="M394.925 0.702597C394.212 0.79981 393.304 1.04284 392.899 1.25347C392.511 1.4479 391.879 1.69094 391.506 1.77195C391.117 1.86916 390.68 2.07979 390.534 2.24181C390.372 2.42004 389.853 2.67927 389.384 2.8413C388.897 2.98712 388.298 3.29496 388.055 3.48939C387.812 3.70002 387.553 3.87824 387.504 3.87824C387.212 3.87824 384.28 6.61642 383.842 7.28072C383.567 7.70198 383.21 8.17184 383.032 8.33387C382.854 8.49589 382.708 8.69032 382.708 8.77133C382.708 8.85234 382.465 9.306 382.157 9.77587C381.866 10.2457 381.558 10.7966 381.493 11.0234C381.428 11.2341 381.169 11.8174 380.926 12.3034C380.002 14.1667 379.565 16.5646 379.565 19.5944C379.581 22.3326 380.148 25.5731 380.78 26.6586C380.958 26.9341 381.088 27.2743 381.088 27.4039C381.088 27.6632 381.558 28.7001 381.736 28.8297C381.801 28.8783 382.044 29.2996 382.287 29.7695C382.53 30.2393 382.935 30.8064 383.194 31.0494C383.47 31.2763 383.68 31.5841 383.68 31.7299C383.68 32.1026 386.402 34.695 387.698 35.5537C388.347 35.9749 388.897 36.38 388.962 36.461C389.011 36.542 389.221 36.6068 389.416 36.6068C389.627 36.6068 389.967 36.7364 390.177 36.9147C390.777 37.3683 391.474 37.6924 392.138 37.7896C392.478 37.8382 393.207 38.0974 393.758 38.3729L394.795 38.8589L402.07 38.9237L409.361 38.9886L410.527 39.4908C411.176 39.7825 411.84 40.0093 412.018 40.0093C412.213 40.0093 412.861 40.5278 413.606 41.2569C414.74 42.4072 414.902 42.6341 415.307 43.8168C415.55 44.5297 415.745 45.3885 415.761 45.7125C415.761 46.4092 415.437 47.9484 415.275 47.9484C415.21 47.9484 415.113 48.2239 415.048 48.5641C414.983 48.9854 414.772 49.3418 414.432 49.6659C414.141 49.9413 413.655 50.4598 413.347 50.8324C413.039 51.1889 412.569 51.5939 412.294 51.6911C412.018 51.8046 411.532 52.0638 411.224 52.2582C410.155 52.9387 408.81 52.9873 395.621 52.9387C381.898 52.8901 382.562 52.8415 382.011 53.9757C381.752 54.5103 381.72 55.126 381.687 59.5978C381.655 65.6251 381.509 65.2362 383.794 65.4793C384.571 65.5603 390.874 65.6089 397.776 65.6089C412.585 65.6089 414.448 65.5279 415.048 64.9932C415.356 64.7016 416.247 64.3937 417.154 64.2479C418.774 63.9887 423.959 59.8571 425.401 57.6698C425.677 57.2647 425.984 56.8435 426.098 56.73C426.211 56.6004 426.422 56.2764 426.552 56.0009C426.697 55.7093 426.908 55.3691 427.021 55.2394C427.297 54.9154 428.658 50.8486 428.901 49.6497C429.111 48.5803 429.176 44.2219 428.998 42.6665C428.755 40.6088 427.329 37.0929 425.839 34.857C425.353 34.1279 424.883 33.5284 424.802 33.5284C424.737 33.5284 424.672 33.415 424.672 33.2854C424.672 32.9613 421.156 29.8181 420.459 29.5264C420.152 29.3968 419.682 29.1214 419.406 28.9269C418.418 28.1978 416.506 27.3877 415.518 27.2743C414.983 27.2095 414.108 26.9827 413.574 26.7396L412.601 26.3184L405.391 26.2374L398.181 26.1564L396.901 25.4435C394.746 24.2445 393.58 22.7701 393.142 20.6476C392.899 19.481 392.899 19.2866 393.126 18.4765C393.531 17.0669 394.196 15.7221 394.665 15.4143C394.908 15.2684 395.2 15.0092 395.314 14.8634C395.427 14.7014 395.605 14.5717 395.702 14.5717C395.783 14.5717 396.156 14.3449 396.496 14.0695C396.853 13.794 397.404 13.4862 397.744 13.389C398.149 13.2594 402.88 13.1783 412.148 13.1135L425.968 13.0325L426.406 12.5789L426.859 12.1414V6.58402V1.04284L426.373 0.79981C425.952 0.589181 423.959 0.556776 411.062 0.540574C400.725 0.524372 395.848 0.572978 394.925 0.702597Z"/>
<path d="M443.726 0.65396C443.288 0.718769 442.818 0.896994 442.689 1.02661C442.462 1.25344 442.43 4.72073 442.397 32.4266C442.381 49.5686 442.397 63.8914 442.446 64.2641C442.559 65.2524 442.883 65.3982 445.184 65.5116C449.64 65.7385 453.334 65.6737 454.922 65.3496C455.78 65.1876 455.764 65.3172 455.78 57.9776C455.78 53.927 455.845 51.0268 455.942 50.8648C456.234 50.3139 456.607 50.0547 457.076 50.0547C457.336 50.0547 457.595 49.9737 457.644 49.8927C457.692 49.7954 457.87 49.7306 458.032 49.7306C458.194 49.7306 458.518 49.5848 458.745 49.4066C458.988 49.2122 459.539 49.0177 459.993 48.9691C460.447 48.9205 460.852 48.8071 460.9 48.7423C460.949 48.6613 461.176 48.5965 461.419 48.5965C461.662 48.5965 462.229 48.4183 462.666 48.1914C463.12 47.9808 463.671 47.7864 463.914 47.7864C464.303 47.7864 465.145 47.4623 466.15 46.8952C466.377 46.7818 466.782 46.6522 467.041 46.6036C467.851 46.474 468.937 46.1499 469.293 45.9231C469.487 45.8097 469.957 45.6639 470.362 45.5991C471.156 45.4694 472.371 44.9834 472.533 44.7403C472.582 44.6431 473.019 44.5297 473.489 44.4649C473.943 44.4001 474.769 44.1409 475.304 43.8978C475.839 43.6386 476.746 43.3307 477.313 43.1849C477.88 43.0553 478.512 42.8285 478.706 42.6989C478.917 42.553 479.614 42.3262 480.278 42.1804C480.926 42.0346 481.834 41.7429 482.303 41.5323C482.757 41.3217 483.324 41.1434 483.551 41.1434C483.762 41.1434 484.442 40.8842 485.042 40.5764C486.224 39.9607 486.678 39.8797 486.824 40.2523C486.889 40.3819 486.937 46.0041 486.953 52.7443C486.97 66.7268 486.791 65.3334 488.59 65.5279C490.453 65.7223 494.212 65.7547 496.529 65.5765C499.267 65.382 499.429 65.3496 499.753 65.0256C499.98 64.7987 500.012 61.6717 500.012 33.1233C500.012 15.7221 499.964 1.35066 499.915 1.20484C499.656 0.540544 499.154 0.475735 493.532 0.475735C487.213 0.475735 487.164 0.491937 487.002 1.69091C486.937 2.11216 486.889 7.70195 486.889 14.1018V25.7513L486.451 26.0105C486.192 26.1563 485.706 26.4804 485.349 26.7234C484.961 26.9827 484.361 27.2095 483.843 27.2743C483.389 27.3391 482.546 27.5983 481.979 27.8414C481.428 28.1006 480.651 28.3598 480.246 28.4247C479.841 28.4895 479.338 28.6839 479.128 28.8459C478.917 29.0241 478.609 29.1538 478.447 29.1538C478.285 29.1538 478.123 29.2186 478.075 29.2996C478.026 29.3644 477.508 29.4778 476.94 29.5264C476.357 29.575 475.709 29.737 475.498 29.8829C475.288 30.0125 474.542 30.2717 473.83 30.4661C473.133 30.6444 472.517 30.855 472.469 30.9198C472.29 31.1952 471.367 31.5679 470.362 31.7461C469.779 31.8595 469.082 32.0864 468.807 32.2484C468.531 32.4266 467.77 32.6696 467.106 32.8155C466.441 32.9613 465.761 33.2205 465.566 33.3825C465.372 33.5608 464.692 33.8038 463.995 33.9334C463.298 34.063 462.585 34.2737 462.375 34.4033C462.18 34.5329 461.516 34.7921 460.884 34.9542C460.268 35.1324 459.41 35.4726 459.005 35.6995C458.535 35.9587 457.887 36.1531 457.238 36.2341C456.364 36.3152 456.185 36.299 456.007 36.0397C455.813 35.7805 455.78 32.7345 455.78 18.5575C455.78 9.09534 455.715 1.28585 455.651 1.17243C455.586 1.05902 455.213 0.864589 454.824 0.718769C454.241 0.524342 453.253 0.475735 449.316 0.491937C446.675 0.508139 444.163 0.572949 443.726 0.65396Z"/>
<path d="M200.173 27.3229C199.882 27.3553 199.525 27.5335 199.363 27.7279C199.088 28.0196 199.055 28.4408 199.007 32.702C198.974 37.3197 199.088 38.8427 199.542 39.3288C199.655 39.4584 200.011 39.6042 200.352 39.6852C200.692 39.7662 209.879 39.831 220.75 39.8472C242.316 39.8796 241.441 39.912 242.154 38.9723C242.461 38.5511 242.478 38.3404 242.445 33.2367C242.413 27.9548 242.413 27.9548 242.056 27.6793C241.846 27.5335 241.424 27.3553 241.117 27.3067C240.485 27.2095 201 27.2257 200.173 27.3229Z" />
<path d="M202.377 52.9873C201.081 53.0521 199.898 53.1493 199.752 53.2141C199.201 53.441 199.088 54.3483 199.055 59.3548C199.007 64.6367 199.088 65.2038 199.817 65.3496C200.028 65.3982 200.854 65.463 201.664 65.5279C203.543 65.6413 244.26 65.6413 245.556 65.5279C248.1 65.2848 247.905 65.7709 247.905 59.5492C247.889 53.7002 247.84 53.3599 246.82 53.1007C246.22 52.9387 205.779 52.8415 202.377 52.9873Z" />
</svg>